<svg width="100" height="94" viewBox="0 0 100 94" fill="none" xmlns="http://www.w3.org/2000/svg">
<path d="M40.0869 44.4909L30.8784 53.7384C30.1859 54.432 30.1859 55.5365 30.8784 56.2301C31.2119 56.564 31.6736 56.7438 32.1096 56.7438C32.5713 56.7438 33.0074 56.564 33.3665 56.2301L42.575 46.9826C43.2675 46.2891 43.2675 45.1845 42.575 44.4909C41.8824 43.8231 40.7794 43.8231 40.0869 44.4909Z" fill="white"/>
<path d="M74.2486 54.4324L54.8057 34.8072L57.5759 32.0073C60.064 33.4971 63.2446 33.7026 64.7324 33.7026C65.0915 33.7026 65.3479 33.6769 65.4762 33.6769C65.9636 33.6513 66.4253 33.3944 66.7587 33.0091L74.3512 23.2992C74.9668 22.5286 74.8129 21.424 74.0691 20.8332C73.2995 20.2167 72.1966 20.3709 71.6066 21.1158L64.5015 30.1835C63.3729 30.1578 61.6287 29.978 60.1922 29.3872L70.2728 19.3177C70.9397 18.6241 70.9397 17.5196 70.2728 16.826C69.5803 16.1581 68.4773 16.1581 67.7847 16.826L57.7042 26.9212C57.1399 25.5083 56.9603 23.7616 56.9347 22.6057L66.1431 15.5159C66.9126 14.9251 67.0665 13.8206 66.4766 13.05C65.861 12.2793 64.758 12.1252 63.9885 12.716L54.1131 20.3452C53.7284 20.6534 53.4719 21.1158 53.4462 21.6295C53.4206 22.169 53.241 26.4331 55.1135 29.5413L52.3176 32.3155L33.0799 12.8958C32.7721 12.5619 32.3104 12.3564 31.8487 12.3564C31.387 12.3564 30.9253 12.5619 30.5918 12.8701L30.3353 13.1527C30.0532 13.4353 29.8736 13.8206 29.8223 14.2316C29.7881 14.7624 29.771 15.3019 29.771 15.8499C29.7966 21.7066 32.6951 28.5395 38.3895 36.1943C42.5192 41.7942 46.6232 45.6987 46.7771 45.8785C47.1619 46.2124 47.6749 46.3922 48.1879 46.3409L51.6507 45.9555C52.6254 45.8271 53.318 44.9794 53.2154 44.0033C53.0871 43.0272 52.215 42.3336 51.2659 42.462L48.624 42.7446C45.982 40.0988 35.1319 28.6165 33.4903 18.2902L71.7605 56.9241C72.094 57.258 72.5557 57.4378 73.0174 57.4378C73.4534 57.4378 73.8895 57.258 74.2486 56.9241C74.9412 56.2305 74.9412 55.1259 74.2486 54.4324Z" fill="white"/>
<path d="M28.3645 59.6206C27.9798 59.6206 27.6207 59.4665 27.3129 59.2096C20.2077 52.7621 16.1293 43.566 16.1293 33.9846C16.1293 15.2328 31.34 0.000119209 50.0647 0.000119209C68.7894 0.000119209 84 15.2328 84 33.9846C84 42.0761 80.5629 50.2704 74.3042 57.0262C73.7143 57.6684 72.7139 57.6941 72.0726 57.1032C71.457 56.5124 71.4057 55.5106 71.9957 54.8684C77.7157 48.7035 80.8707 41.2798 80.8707 33.9846C80.8707 16.9795 67.0452 3.13398 50.0647 3.13398C33.0842 3.13398 19.2587 16.9795 19.2587 33.9846C19.2587 42.6926 22.978 51.041 29.4162 56.8721C30.0574 57.4629 30.1087 58.439 29.5188 59.0812C29.211 59.4408 28.8006 59.6206 28.3645 59.6206Z" fill="white"/>
<path d="M15.6786 74.2975H11.073C11.0403 73.9178 10.9532 73.5734 10.8117 73.2642C10.6756 72.955 10.4851 72.6892 10.2401 72.4668C10.0005 72.239 9.70929 72.0654 9.36632 71.9461C9.02335 71.8213 8.63411 71.7589 8.1986 71.7589C7.43644 71.7589 6.79133 71.9434 6.26327 72.3122C5.74065 72.6811 5.34324 73.21 5.07104 73.8989C4.80429 74.5878 4.67091 75.415 4.67091 76.3805C4.67091 77.4003 4.80701 78.2546 5.07921 78.9435C5.35685 79.627 5.75698 80.1423 6.2796 80.4895C6.80222 80.8312 7.431 81.0021 8.16593 81.0021C8.58512 81.0021 8.96075 80.9505 9.29283 80.8475C9.62491 80.739 9.91344 80.5844 10.1584 80.3837C10.4034 80.183 10.6021 79.9416 10.7545 79.6595C10.9124 79.372 11.0186 79.0493 11.073 78.6913L15.6786 78.7238C15.6242 79.429 15.4254 80.1477 15.0825 80.88C14.7395 81.6069 14.2523 82.2795 13.6208 82.8979C12.9947 83.5108 12.219 84.0045 11.2935 84.3787C10.368 84.753 9.29283 84.9402 8.06794 84.9402C6.53275 84.9402 5.15543 84.612 3.93598 83.9556C2.72198 83.2993 1.76112 82.3338 1.05341 81.059C0.351135 79.7843 0 78.2248 0 76.3805C0 74.5254 0.359301 72.9632 1.0779 71.6939C1.7965 70.4191 2.76553 69.4563 3.98497 68.8054C5.20442 68.149 6.56541 67.8208 8.06794 67.8208C9.12407 67.8208 10.0958 67.9646 10.9832 68.2521C11.8705 68.5396 12.649 68.96 13.3186 69.5133C13.9882 70.0611 14.5272 70.7364 14.9355 71.5393C15.3438 72.3421 15.5915 73.2615 15.6786 74.2975Z" fill="white"/>
<path d="M22.3114 77.6824V84.7123H17.8038V68.0487H22.1481V74.5905H22.2787C22.5618 73.7931 23.0327 73.172 23.6914 72.7272C24.3501 72.277 25.1422 72.0519 26.0677 72.0519C26.9551 72.0519 27.7254 72.2526 28.3787 72.654C29.0374 73.0554 29.5464 73.6087 29.9057 74.3138C30.2704 75.019 30.4501 75.8272 30.4446 76.7385V84.7123H25.937V77.6824C25.9425 77.064 25.7873 76.5785 25.4716 76.2259C25.1613 75.8733 24.7176 75.697 24.1405 75.697C23.7758 75.697 23.4546 75.7784 23.177 75.9411C22.9048 76.0984 22.6924 76.3263 22.54 76.6246C22.393 76.9175 22.3168 77.2701 22.3114 77.6824Z" fill="white"/>
<path d="M38.68 84.9402C37.3408 84.9402 36.1866 84.6852 35.2176 84.1753C34.254 83.66 33.5109 82.9223 32.9883 81.9622C32.4711 80.9966 32.2126 79.8413 32.2126 78.496C32.2126 77.205 32.4739 76.0767 32.9965 75.1112C33.5191 74.1457 34.2568 73.3944 35.2095 72.8574C36.1621 72.3204 37.2863 72.0519 38.582 72.0519C39.5292 72.0519 40.3867 72.1983 41.1543 72.4912C41.9219 72.7841 42.5778 73.21 43.1222 73.7687C43.6666 74.322 44.0858 74.9946 44.3798 75.7865C44.6738 76.5785 44.8208 77.4708 44.8208 78.4635V79.5049H33.6171V77.0314H40.6725C40.667 76.6734 40.5745 76.3588 40.3948 76.0876C40.2206 75.8109 39.9838 75.5967 39.6844 75.4448C39.3904 75.2875 39.0556 75.2088 38.68 75.2088C38.3152 75.2088 37.9804 75.2875 37.6756 75.4448C37.3707 75.5967 37.1257 75.8082 36.9406 76.0795C36.761 76.3507 36.6657 76.668 36.6548 77.0314V79.7002C36.6548 80.1016 36.7392 80.4596 36.908 80.7742C37.0767 81.0889 37.319 81.3357 37.6347 81.5147C37.9505 81.6937 38.3316 81.7832 38.778 81.7832C39.0883 81.7832 39.3714 81.7398 39.6272 81.653C39.8885 81.5662 40.1117 81.4414 40.2968 81.2787C40.4819 81.1106 40.618 80.9099 40.7051 80.6766H44.8208C44.6792 81.5445 44.3444 82.2985 43.8163 82.9386C43.2883 83.5732 42.5887 84.0668 41.7177 84.4194C40.8521 84.7666 39.8395 84.9402 38.68 84.9402Z" fill="white"/>
<path d="M54.1728 72.2146V75.4692H45.7782V72.2146H54.1728ZM47.3787 84.7123V71.8566C47.3787 70.826 47.5638 69.9716 47.934 69.2936C48.3042 68.6155 48.8268 68.1083 49.5019 67.772C50.1769 67.4357 50.9717 67.2676 51.8863 67.2676C52.4579 67.2676 53.0132 67.311 53.5522 67.3977C54.0966 67.4845 54.4994 67.5605 54.7607 67.6256L54.1075 70.8476C53.9441 70.7988 53.7536 70.7609 53.5359 70.7337C53.3181 70.7012 53.1276 70.6849 52.9642 70.6849C52.5396 70.6849 52.2538 70.7744 52.1068 70.9534C51.9598 71.1324 51.8863 71.3684 51.8863 71.6613V84.7123H47.3787Z" fill="white"/>
<path d="M63.4248 72.2146V75.4692H55.0302V72.2146H63.4248ZM56.6307 84.7123V71.8566C56.6307 70.826 56.8158 69.9716 57.186 69.2936C57.5562 68.6155 58.0788 68.1083 58.7539 67.772C59.4289 67.4357 60.2237 67.2676 61.1383 67.2676C61.7099 67.2676 62.2652 67.311 62.8042 67.3977C63.3486 67.4845 63.7514 67.5605 64.0127 67.6256L63.3595 70.8476C63.1961 70.7988 63.0056 70.7609 62.7878 70.7337C62.5701 70.7012 62.3796 70.6849 62.2162 70.6849C61.7916 70.6849 61.5058 70.7744 61.3588 70.9534C61.2118 71.1324 61.1383 71.3684 61.1383 71.6613V84.7123H56.6307Z" fill="white"/>
<path d="M70.7925 84.9402C69.4533 84.9402 68.2992 84.6852 67.3301 84.1753C66.3666 83.66 65.6235 82.9223 65.1009 81.9622C64.5837 80.9966 64.3251 79.8413 64.3251 78.496C64.3251 77.205 64.5864 76.0767 65.109 75.1112C65.6316 74.1457 66.3693 73.3944 67.322 72.8574C68.2747 72.3204 69.3988 72.0519 70.6945 72.0519C71.6418 72.0519 72.4992 72.1983 73.2668 72.4912C74.0344 72.7841 74.6904 73.21 75.2348 73.7687C75.7792 74.322 76.1984 74.9946 76.4923 75.7865C76.7863 76.5785 76.9333 77.4708 76.9333 78.4635V79.5049H65.7296V77.0314H72.785C72.7795 76.6734 72.687 76.3588 72.5073 76.0876C72.3331 75.8109 72.0963 75.5967 71.7969 75.4448C71.5029 75.2875 71.1681 75.2088 70.7925 75.2088C70.4278 75.2088 70.093 75.2875 69.7881 75.4448C69.4832 75.5967 69.2383 75.8082 69.0532 76.0795C68.8735 76.3507 68.7782 76.668 68.7673 77.0314V79.7002C68.7673 80.1016 68.8517 80.4596 69.0205 80.7742C69.1893 81.0889 69.4315 81.3357 69.7473 81.5147C70.063 81.6937 70.4441 81.7832 70.8905 81.7832C71.2008 81.7832 71.4839 81.7398 71.7398 81.653C72.0011 81.5662 72.2243 81.4414 72.4094 81.2787C72.5945 81.1106 72.7306 80.9099 72.8177 80.6766H76.9333C76.7917 81.5445 76.4569 82.2985 75.9289 82.9386C75.4008 83.5732 74.7013 84.0668 73.8302 84.4194C72.9646 84.7666 71.9521 84.9402 70.7925 84.9402Z" fill="white"/>
<path d="M90.2376 76.2829H86.0893C86.0676 76.0279 85.9777 75.8082 85.8199 75.6238C85.662 75.4394 85.4578 75.2983 85.2074 75.2007C84.9624 75.0976 84.6902 75.0461 84.3908 75.0461C84.0043 75.0461 83.6722 75.1166 83.3946 75.2577C83.1169 75.3987 82.9808 75.5994 82.9863 75.8598C82.9808 76.0442 83.0598 76.2151 83.2231 76.3724C83.3919 76.5297 83.7158 76.6517 84.1948 76.7385L86.7426 77.1942C88.0274 77.4274 88.9828 77.8207 89.6088 78.374C90.2403 78.9218 90.5588 79.6568 90.5643 80.579C90.5588 81.4686 90.2921 82.2415 89.764 82.8979C89.2414 83.5488 88.5255 84.0533 87.6164 84.4113C86.7127 84.7639 85.681 84.9402 84.5215 84.9402C82.6052 84.9402 81.1054 84.5496 80.022 83.7685C78.9441 82.9874 78.3426 81.9568 78.2174 80.6766H82.6923C82.7522 81.0726 82.9482 81.3791 83.2803 81.596C83.6178 81.8076 84.0424 81.9134 84.5541 81.9134C84.9679 81.9134 85.3081 81.8428 85.5749 81.7018C85.8471 81.5608 85.9859 81.3601 85.9913 81.0997C85.9859 80.861 85.8661 80.6712 85.632 80.5302C85.4034 80.3891 85.0441 80.2752 84.5541 80.1884L82.333 79.7979C81.0537 79.5755 80.0955 79.1524 79.4586 78.5286C78.8217 77.9048 78.5059 77.1019 78.5114 76.1201C78.5059 75.2522 78.7346 74.5172 79.1973 73.9151C79.6655 73.3076 80.3324 72.8465 81.1979 72.5319C82.069 72.2119 83.1006 72.0519 84.2928 72.0519C86.1057 72.0519 87.5347 72.4261 88.5799 73.1747C89.6306 73.9233 90.1832 74.9593 90.2376 76.2829Z" fill="white"/>
<path d="M99.7714 72.2146V75.4692H91.5074V72.2146H99.7714ZM93.108 69.2203H97.6155V80.6929C97.6155 80.8665 97.6455 81.0129 97.7054 81.1323C97.7653 81.2462 97.8578 81.333 97.983 81.3926C98.1082 81.4469 98.2688 81.474 98.4648 81.474C98.6009 81.474 98.7588 81.4577 98.9384 81.4252C99.1235 81.3926 99.2596 81.3655 99.3467 81.3438L100 84.5008C99.7986 84.5605 99.51 84.6337 99.1344 84.7205C98.7642 84.8073 98.3233 84.8642 97.8115 84.8913C96.7772 84.9456 95.9089 84.8398 95.2066 84.574C94.5043 84.3028 93.9763 83.877 93.6224 83.2966C93.2686 82.7162 93.0971 81.9893 93.108 81.116V69.2203Z" fill="white"/>
<path d="M50.4202 90.5505H2.79996C2.42213 90.5505 2.10028 90.2342 2.10028 89.8492C2.10028 89.4642 2.42213 89.1479 2.79996 89.1479H50.4202C50.812 89.1479 51.1199 89.4642 51.1199 89.8492C51.1199 90.2342 50.812 90.5505 50.4202 90.5505Z" fill="white"/>
<path d="M50.4212 93.917H40.0571C39.6789 93.917 39.3568 93.6038 39.3568 93.2089C39.3568 92.8276 39.6789 92.5144 40.0571 92.5144H50.4212C50.8134 92.5144 51.1215 92.8276 51.1215 93.2089C51.1215 93.6038 50.8134 93.917 50.4212 93.917Z" fill="white"/>
<path d="M53.0822 93.8515V89.4021H56.0585V90.1777H54.0326V91.2379H55.861V92.0135H54.0326V93.8515H53.0822Z" fill="white"/>
<path d="M57.5993 93.9145C57.3842 93.9145 57.1925 93.8776 57.0242 93.8037C56.856 93.7284 56.7228 93.6176 56.6248 93.4713C56.5282 93.3236 56.4799 93.1397 56.4799 92.9195C56.4799 92.7341 56.5143 92.5784 56.5831 92.4524C56.6518 92.3264 56.7455 92.225 56.864 92.1482C56.9825 92.0715 57.1172 92.0135 57.2679 91.9744C57.4201 91.9353 57.5796 91.9078 57.7464 91.8919C57.9424 91.8716 58.1005 91.8528 58.2205 91.8354C58.3405 91.8166 58.4275 91.789 58.4817 91.7528C58.5358 91.7166 58.5629 91.663 58.5629 91.5921V91.579C58.5629 91.4414 58.519 91.335 58.4312 91.2597C58.3448 91.1843 58.2219 91.1467 58.0624 91.1467C57.8942 91.1467 57.7603 91.1836 57.6608 91.2575C57.5613 91.3299 57.4954 91.4211 57.4632 91.5312L56.5984 91.4617C56.6423 91.2589 56.7287 91.0837 56.8574 90.9359C56.9862 90.7868 57.1523 90.6723 57.3557 90.5927C57.5605 90.5116 57.7976 90.471 58.0668 90.471C58.2541 90.471 58.4334 90.4927 58.6046 90.5362C58.7772 90.5796 58.9301 90.647 59.0633 90.7382C59.1979 90.8295 59.304 90.9468 59.3816 91.0902C59.4591 91.2321 59.4979 91.4023 59.4979 91.6007V93.8515H58.6112V93.3888H58.5848C58.5307 93.4931 58.4582 93.585 58.3675 93.6647C58.2768 93.7429 58.1678 93.8045 58.0405 93.8494C57.9132 93.8928 57.7661 93.9145 57.5993 93.9145ZM57.8671 93.2758C58.0046 93.2758 58.1261 93.249 58.2314 93.1954C58.3368 93.1404 58.4195 93.0665 58.4795 92.9738C58.5395 92.8811 58.5695 92.7761 58.5695 92.6588V92.3047C58.5402 92.3235 58.4999 92.3409 58.4487 92.3568C58.399 92.3713 58.3426 92.385 58.2797 92.3981C58.2168 92.4097 58.1539 92.4205 58.091 92.4307C58.028 92.4394 57.971 92.4473 57.9198 92.4546C57.81 92.4705 57.7142 92.4958 57.6322 92.5306C57.5503 92.5654 57.4866 92.6124 57.4413 92.6718C57.3959 92.7298 57.3732 92.8022 57.3732 92.8891C57.3732 93.0151 57.4193 93.1114 57.5115 93.178C57.6052 93.2432 57.7237 93.2758 57.8671 93.2758Z" fill="white"/>
<path d="M63.0284 91.466L62.1724 91.5182C62.1577 91.4458 62.1263 91.3806 62.078 91.3227C62.0297 91.2633 61.9661 91.2162 61.887 91.1814C61.8095 91.1452 61.7166 91.1271 61.6083 91.1271C61.4634 91.1271 61.3412 91.1575 61.2417 91.2184C61.1422 91.2778 61.0925 91.3574 61.0925 91.4574C61.0925 91.537 61.1247 91.6044 61.1891 91.6594C61.2534 91.7144 61.3639 91.7586 61.5205 91.7919L62.1307 91.9136C62.4584 91.9802 62.7028 92.0874 62.8638 92.2351C63.0247 92.3829 63.1052 92.577 63.1052 92.8174C63.1052 93.0361 63.0401 93.228 62.9099 93.3931C62.7811 93.5582 62.604 93.6871 62.3787 93.7798C62.1548 93.8711 61.8965 93.9167 61.6039 93.9167C61.1576 93.9167 60.802 93.8247 60.5372 93.6408C60.2738 93.4554 60.1194 93.2034 60.0741 92.8847L60.9937 92.8369C61.0215 92.9716 61.0888 93.0745 61.1956 93.1454C61.3025 93.215 61.4393 93.2497 61.6061 93.2497C61.77 93.2497 61.9017 93.2186 62.0012 93.1563C62.1021 93.0926 62.1534 93.0107 62.1548 92.9108C62.1534 92.8268 62.1175 92.758 62.0473 92.7044C61.977 92.6494 61.8687 92.6074 61.7224 92.5784L61.1386 92.4633C60.8093 92.3981 60.5642 92.2851 60.4033 92.1243C60.2438 91.9636 60.164 91.7586 60.164 91.5095C60.164 91.2951 60.2226 91.1105 60.3396 90.9555C60.4582 90.8005 60.6242 90.681 60.8379 90.597C61.053 90.513 61.3047 90.471 61.5929 90.471C62.0187 90.471 62.3538 90.5601 62.5982 90.7382C62.844 90.9164 62.9874 91.159 63.0284 91.466Z" fill="white"/>
<path d="M65.4872 90.5145V91.2097H63.4569V90.5145H65.4872ZM63.9179 89.715H64.8529V92.8261C64.8529 92.9115 64.8661 92.9782 64.8924 93.026C64.9187 93.0723 64.9553 93.1049 65.0021 93.1237C65.0504 93.1425 65.106 93.152 65.169 93.152C65.2129 93.152 65.2568 93.1483 65.3006 93.1411C65.3445 93.1324 65.3782 93.1259 65.4016 93.1215L65.5487 93.8103C65.5018 93.8247 65.436 93.8414 65.3511 93.8602C65.2663 93.8805 65.1631 93.8928 65.0417 93.8972C64.8163 93.9058 64.6188 93.8762 64.449 93.8081C64.2808 93.74 64.1498 93.6343 64.0561 93.4909C63.9625 93.3475 63.9164 93.1664 63.9179 92.9477V89.715Z" fill="white"/>
<path d="M69.3398 90.5145V91.2097H67.259V90.5145H69.3398ZM67.7353 93.8515V90.2733C67.7353 90.0314 67.7829 89.8308 67.878 89.6715C67.9746 89.5122 68.1063 89.3927 68.2731 89.313C68.4399 89.2334 68.6294 89.1935 68.8416 89.1935C68.985 89.1935 69.1159 89.2044 69.2344 89.2261C69.3544 89.2478 69.4437 89.2674 69.5022 89.2848L69.3354 89.98C69.2988 89.9684 69.2535 89.9576 69.1993 89.9474C69.1467 89.9373 69.0925 89.9322 69.0369 89.9322C68.8994 89.9322 68.8035 89.9641 68.7494 90.0278C68.6952 90.0901 68.6682 90.1777 68.6682 90.2907V93.8515H67.7353Z" fill="white"/>
<path d="M71.3136 93.9167C70.9726 93.9167 70.6778 93.845 70.429 93.7016C70.1817 93.5568 69.9908 93.3555 69.8562 93.0976C69.7215 92.8384 69.6542 92.5378 69.6542 92.196C69.6542 91.8513 69.7215 91.5501 69.8562 91.2922C69.9908 91.033 70.1817 90.8317 70.429 90.6883C70.6778 90.5434 70.9726 90.471 71.3136 90.471C71.6545 90.471 71.9486 90.5434 72.1959 90.6883C72.4447 90.8317 72.6364 91.033 72.771 91.2922C72.9056 91.5501 72.9729 91.8513 72.9729 92.196C72.9729 92.5378 72.9056 92.8384 72.771 93.0976C72.6364 93.3555 72.4447 93.5568 72.1959 93.7016C71.9486 93.845 71.6545 93.9167 71.3136 93.9167ZM71.318 93.1998C71.4731 93.1998 71.6026 93.1563 71.7065 93.0694C71.8103 92.9811 71.8886 92.8608 71.9413 92.7088C71.9954 92.5567 72.0225 92.3836 72.0225 92.1895C72.0225 91.9954 71.9954 91.8223 71.9413 91.6703C71.8886 91.5182 71.8103 91.398 71.7065 91.3096C71.6026 91.2213 71.4731 91.1771 71.318 91.1771C71.1614 91.1771 71.0297 91.2213 70.9229 91.3096C70.8175 91.398 70.7378 91.5182 70.6836 91.6703C70.631 91.8223 70.6046 91.9954 70.6046 92.1895C70.6046 92.3836 70.631 92.5567 70.6836 92.7088C70.7378 92.8608 70.8175 92.9811 70.9229 93.0694C71.0297 93.1563 71.1614 93.1998 71.318 93.1998Z" fill="white"/>
<path d="M75.1041 93.9167C74.7632 93.9167 74.4684 93.845 74.2196 93.7016C73.9723 93.5568 73.7814 93.3555 73.6467 93.0976C73.5121 92.8384 73.4448 92.5378 73.4448 92.196C73.4448 91.8513 73.5121 91.5501 73.6467 91.2922C73.7814 91.033 73.9723 90.8317 74.2196 90.6883C74.4684 90.5434 74.7632 90.471 75.1041 90.471C75.4451 90.471 75.7392 90.5434 75.9865 90.6883C76.2353 90.8317 76.4269 91.033 76.5616 91.2922C76.6962 91.5501 76.7635 91.8513 76.7635 92.196C76.7635 92.5378 76.6962 92.8384 76.5616 93.0976C76.4269 93.3555 76.2353 93.5568 75.9865 93.7016C75.7392 93.845 75.4451 93.9167 75.1041 93.9167ZM75.1085 93.1998C75.2636 93.1998 75.3931 93.1563 75.497 93.0694C75.6009 92.9811 75.6792 92.8608 75.7319 92.7088C75.786 92.5567 75.8131 92.3836 75.8131 92.1895C75.8131 91.9954 75.786 91.8223 75.7319 91.6703C75.6792 91.5182 75.6009 91.398 75.497 91.3096C75.3931 91.2213 75.2636 91.1771 75.1085 91.1771C74.952 91.1771 74.8203 91.2213 74.7135 91.3096C74.6081 91.398 74.5284 91.5182 74.4742 91.6703C74.4215 91.8223 74.3952 91.9954 74.3952 92.1895C74.3952 92.3836 74.4215 92.5567 74.4742 92.7088C74.5284 92.8608 74.6081 92.9811 74.7135 93.0694C74.8203 93.1563 74.952 93.1998 75.1085 93.1998Z" fill="white"/>
<path d="M78.6138 93.9058C78.3577 93.9058 78.1258 93.8407 77.918 93.7103C77.7117 93.5785 77.5478 93.3852 77.4263 93.1302C77.3064 92.8739 77.2464 92.5596 77.2464 92.1873C77.2464 91.805 77.3086 91.487 77.4329 91.2336C77.5573 90.9787 77.7227 90.7882 77.929 90.6622C78.1368 90.5347 78.3643 90.471 78.6116 90.471C78.8004 90.471 78.9577 90.5029 79.0835 90.5666C79.2108 90.6289 79.3132 90.7071 79.3908 90.8012C79.4698 90.8939 79.5298 90.9852 79.5708 91.075H79.5993V89.4021H80.5321V93.8515H79.6103V93.3171H79.5708C79.5269 93.4098 79.4647 93.5017 79.3842 93.593C79.3052 93.6828 79.202 93.7574 79.0747 93.8168C78.9489 93.8762 78.7952 93.9058 78.6138 93.9058ZM78.9101 93.1693C79.0608 93.1693 79.1881 93.1288 79.292 93.0477C79.3974 92.9651 79.4778 92.85 79.5334 92.7022C79.5905 92.5545 79.619 92.3814 79.619 92.183C79.619 91.9846 79.5912 91.8122 79.5356 91.6659C79.48 91.5196 79.3996 91.4067 79.2942 91.327C79.1888 91.2473 79.0608 91.2075 78.9101 91.2075C78.7565 91.2075 78.627 91.2488 78.5216 91.3313C78.4162 91.4139 78.3365 91.5283 78.2824 91.6746C78.2282 91.8209 78.2011 91.9904 78.2011 92.183C78.2011 92.3771 78.2282 92.5487 78.2824 92.6979C78.338 92.8456 78.4177 92.9615 78.5216 93.0455C78.627 93.1281 78.7565 93.1693 78.9101 93.1693Z" fill="white"/>
<path d="M84.1098 93.9167C83.7996 93.9167 83.5318 93.8617 83.3065 93.7516C83.0811 93.6415 82.9077 93.4923 82.7863 93.304C82.6663 93.1143 82.6063 92.9028 82.6063 92.6697C82.6063 92.4958 82.6414 92.3416 82.7117 92.2069C82.7819 92.0722 82.8799 91.9484 83.0058 91.8354C83.1316 91.721 83.2779 91.6073 83.4448 91.4943L84.3161 90.9272C84.4288 90.8563 84.5115 90.7817 84.5641 90.7035C84.6168 90.6238 84.6432 90.5376 84.6432 90.4449C84.6432 90.3566 84.6073 90.2748 84.5356 90.1994C84.4639 90.1241 84.3622 90.0872 84.2305 90.0886C84.1427 90.0886 84.0666 90.1082 84.0023 90.1473C83.9379 90.185 83.8874 90.2349 83.8508 90.2972C83.8157 90.358 83.7981 90.4261 83.7981 90.5014C83.7981 90.5941 83.8245 90.6883 83.8771 90.7839C83.9298 90.8795 84.0001 90.9808 84.0879 91.088C84.1757 91.1938 84.2715 91.3082 84.3754 91.4313L86.5066 93.8515H85.5321L83.7542 91.8919C83.6372 91.7601 83.5201 91.6225 83.403 91.4791C83.2875 91.3342 83.1909 91.1807 83.1133 91.0185C83.0358 90.8548 82.997 90.6774 82.997 90.4862C82.997 90.2704 83.0475 90.0763 83.1484 89.904C83.2509 89.7316 83.3943 89.5955 83.5786 89.4955C83.763 89.3941 83.9781 89.3434 84.2239 89.3434C84.4639 89.3434 84.671 89.392 84.8451 89.489C85.0207 89.5846 85.1553 89.7121 85.249 89.8714C85.3441 90.0293 85.3916 90.2031 85.3916 90.3928C85.3916 90.6028 85.3389 90.7933 85.2336 90.9642C85.1297 91.1336 84.9834 91.2857 84.7946 91.4204L83.8771 92.0744C83.7528 92.1642 83.6606 92.2561 83.6006 92.3503C83.5421 92.443 83.5128 92.5321 83.5128 92.6175C83.5128 92.7232 83.5391 92.8181 83.5918 92.9021C83.6445 92.9861 83.7191 93.0527 83.8157 93.102C83.9123 93.1498 84.0257 93.1737 84.1559 93.1737C84.3139 93.1737 84.4698 93.1382 84.6234 93.0672C84.7785 92.9948 84.919 92.8927 85.0448 92.7609C85.1721 92.6276 85.2738 92.4698 85.3499 92.2873C85.426 92.1048 85.4641 91.9027 85.4641 91.6811H86.2389C86.2389 91.9534 86.2089 92.1989 86.1489 92.4176C86.0889 92.6349 86.0055 92.8246 85.8986 92.9868C85.7918 93.1476 85.6696 93.2794 85.5321 93.3823C85.4882 93.4098 85.4458 93.4358 85.4048 93.4605C85.3638 93.4851 85.3214 93.5112 85.2775 93.5387C85.1107 93.6719 84.9241 93.7682 84.7178 93.8276C84.5129 93.887 84.3103 93.9167 84.1098 93.9167Z" fill="white"/>
<path d="M91.325 90.8403C91.2942 90.7346 91.2511 90.6412 91.1955 90.5601C91.1399 90.4775 91.0718 90.408 90.9914 90.3515C90.9123 90.2936 90.8216 90.2494 90.7192 90.219C90.6182 90.1886 90.5063 90.1734 90.3834 90.1734C90.1536 90.1734 89.9517 90.2299 89.7776 90.3428C89.6049 90.4558 89.4703 90.6202 89.3737 90.836C89.2771 91.0504 89.2288 91.3125 89.2288 91.6225C89.2288 91.9324 89.2764 92.196 89.3715 92.4133C89.4666 92.6305 89.6012 92.7964 89.7754 92.9108C89.9495 93.0238 90.1551 93.0803 90.3921 93.0803C90.6072 93.0803 90.7909 93.0426 90.9431 92.9673C91.0967 92.8905 91.2138 92.7826 91.2942 92.6436C91.3762 92.5045 91.4172 92.3401 91.4172 92.1504L91.6103 92.1786H90.4514V91.4704H92.3324V92.0309C92.3324 92.422 92.249 92.758 92.0822 93.039C91.9154 93.3185 91.6857 93.5343 91.393 93.6864C91.1004 93.837 90.7653 93.9124 90.3878 93.9124C89.9663 93.9124 89.5961 93.8204 89.2771 93.6364C88.9581 93.4511 88.7094 93.1882 88.5309 92.8478C88.3538 92.506 88.2653 92.1004 88.2653 91.6312C88.2653 91.2705 88.318 90.949 88.4233 90.6665C88.5301 90.3827 88.6794 90.1422 88.8711 89.9452C89.0628 89.7483 89.2859 89.5984 89.5405 89.4955C89.7951 89.3927 90.071 89.3413 90.368 89.3413C90.6226 89.3413 90.8597 89.3782 91.0791 89.4521C91.2986 89.5245 91.4932 89.6273 91.663 89.7606C91.8342 89.8938 91.9739 90.0524 92.0822 90.2364C92.1905 90.4189 92.26 90.6202 92.2907 90.8403H91.325Z" fill="white"/>
<path d="M93.0288 93.8515V90.5145H93.9353V91.0967H93.9704C94.0318 90.8896 94.135 90.7332 94.2799 90.6274C94.4247 90.5203 94.5915 90.4667 94.7803 90.4667C94.8271 90.4667 94.8776 90.4696 94.9317 90.4754C94.9859 90.4811 95.0334 90.4891 95.0744 90.4993V91.3205C95.0305 91.3074 94.9698 91.2959 94.8922 91.2857C94.8147 91.2756 94.7437 91.2705 94.6793 91.2705C94.5418 91.2705 94.4189 91.3002 94.3106 91.3596C94.2038 91.4175 94.1189 91.4986 94.056 91.6029C93.9945 91.7072 93.9638 91.8274 93.9638 91.9636V93.8515H93.0288Z" fill="white"/>
<path d="M95.5578 93.8515V90.5145H96.4929V93.8515H95.5578ZM96.0275 90.0843C95.8885 90.0843 95.7693 90.0387 95.6698 89.9474C95.5717 89.8547 95.5227 89.7439 95.5227 89.615C95.5227 89.4876 95.5717 89.3782 95.6698 89.287C95.7693 89.1943 95.8885 89.1479 96.0275 89.1479C96.1665 89.1479 96.2851 89.1943 96.3831 89.287C96.4826 89.3782 96.5324 89.4876 96.5324 89.615C96.5324 89.7439 96.4826 89.8547 96.3831 89.9474C96.2851 90.0387 96.1665 90.0843 96.0275 90.0843Z" fill="white"/>
<path d="M98.1769 89.4021V93.8515H97.2419V89.4021H98.1769Z" fill="white"/>
<path d="M99.8609 89.4021V93.8515H98.9259V89.4021H99.8609Z" fill="white"/>
</svg>
