<svg width="30" height="33" viewBox="0 0 30 33" fill="none" xmlns="http://www.w3.org/2000/svg">
<path d="M21.7436 32.9998C23.1445 32.9998 24.2802 31.8158 24.2802 30.3553C24.2802 28.8948 23.1445 27.7108 21.7436 27.7108C20.3427 27.7108 19.207 28.8948 19.207 30.3553C19.207 31.8158 20.3427 32.9998 21.7436 32.9998Z" fill="white"/>
<path d="M10.146 32.9998C11.5469 32.9998 12.6825 31.8158 12.6825 30.3553C12.6825 28.8948 11.5469 27.7108 10.146 27.7108C8.74504 27.7108 7.60938 28.8948 7.60938 30.3553C7.60938 31.8158 8.74504 32.9998 10.146 32.9998Z" fill="white"/>
<path d="M5.20361 4.95398L4.91371 8.65622C4.85573 9.36645 5.39204 9.95578 6.07329 9.95578H28.2647C28.8735 9.95578 29.3808 9.47223 29.4243 8.83756C29.6127 6.16288 27.6559 3.98687 25.0904 3.98687H7.27635C7.13141 3.32197 6.84151 2.6873 6.39218 2.15841C5.66744 1.35752 4.65281 0.889072 3.60919 0.889072H1.0871C0.492821 0.889072 0 1.40285 0 2.02241C0 2.64197 0.492821 3.15575 1.0871 3.15575H3.60919C4.05852 3.15575 4.47887 3.3522 4.78326 3.68464C5.08765 4.0322 5.2326 4.48554 5.20361 4.95398Z" fill="white"/>
<path d="M27.9192 12.2226H5.68424C5.07546 12.2226 4.58264 12.7061 4.52466 13.3257L4.00285 19.8991C3.79993 22.4831 5.74222 24.6893 8.22082 24.6893H24.339C26.5132 24.6893 28.4265 22.8306 28.5859 20.5639L29.0642 13.507C29.1222 12.8119 28.6004 12.2226 27.9192 12.2226Z" fill="white"/>
</svg>
